<?xml version="1.0" encoding="utf-8"?>
<!-- Generator: Adobe Illustrator 24.3.0, SVG Export Plug-In . SVG Version: 6.00 Build 0)  -->
<svg version="1.1" id="Layer_1" xmlns="http://www.w3.org/2000/svg" xmlns:xlink="http://www.w3.org/1999/xlink" x="0px" y="0px"
	 viewBox="0 0 35 35" style="enable-background:new 0 0 35 35;" xml:space="preserve">
<style type="text/css">
	.st0{fill:#FFFFFF;}
	.st1{fill:#07709E;}
</style>
<g id="Grupo_240" transform="translate(-28 -404)">
	<g transform="matrix(1, 0, 0, 1, 28, 404)">
		<circle id="Elipse_4-2" class="st0" cx="17.5" cy="17.5" r="17.5"/>
	</g>
	<path id="Icon_awesome-users" class="st1" d="M36,420.9c1.5,0,2.7-1.2,2.7-2.7c0-1.5-1.2-2.7-2.7-2.7s-2.7,1.2-2.7,2.7c0,0,0,0,0,0
		C33.3,419.7,34.6,420.9,36,420.9z M55,420.9c1.5,0,2.7-1.2,2.7-2.7c0-1.5-1.2-2.7-2.7-2.7c-1.5,0-2.7,1.2-2.7,2.7
		C52.3,419.7,53.5,420.9,55,420.9L55,420.9z M56.3,422.2h-2.7c-0.7,0-1.4,0.3-1.9,0.8c1.7,0.9,2.9,2.7,3.2,4.6h2.8
		c0.7,0,1.3-0.6,1.3-1.3c0,0,0,0,0,0v-1.4C59,423.4,57.8,422.2,56.3,422.2L56.3,422.2z M45.5,422.2c2.6,0,4.7-2.1,4.7-4.7
		c0-2.6-2.1-4.7-4.7-4.7c-2.6,0-4.7,2.1-4.7,4.7l0,0C40.8,420.1,42.9,422.2,45.5,422.2C45.5,422.2,45.5,422.2,45.5,422.2z
		 M48.7,423.6h-0.3c-1.8,0.9-4,0.9-5.8,0h-0.4c-2.7,0-4.9,2.2-4.9,4.9v1.2c0,1.1,0.9,2,2,2h12.2c1.1,0,2-0.9,2-2v-1.2
		C53.6,425.8,51.4,423.6,48.7,423.6z M39.3,423c-0.5-0.5-1.2-0.8-1.9-0.8h-2.7c-1.5,0-2.7,1.2-2.7,2.7v1.4c0,0.7,0.6,1.3,1.3,1.4
		c0,0,0,0,0,0h2.8C36.4,425.7,37.6,424,39.3,423z"/>
</g>
</svg>
