<?xml version="1.0" encoding="utf-8"?>
<!-- Generator: Adobe Illustrator 24.3.0, SVG Export Plug-In . SVG Version: 6.00 Build 0)  -->
<svg version="1.1" id="Layer_1" xmlns="http://www.w3.org/2000/svg" xmlns:xlink="http://www.w3.org/1999/xlink" x="0px" y="0px"
	 viewBox="0 0 1920 890" style="enable-background:new 0 0 1920 890;" xml:space="preserve">
<style type="text/css">
	.st0{fill:#F8F8F8;}
	.st1{opacity:0.15;}
	.st2{fill:#259BDA;}
	.st3{opacity:0.25;}
	.st4{fill:#07709E;}
	.st5{opacity:0.2;fill:#259BDA;enable-background:new    ;}
	.st6{fill:#81B844;}
	.st7{fill:#668934;}
	.st8{fill:#FFFFFF;}
	.st9{fill:#37474F;}
	.st10{fill:#ECF1F7;}
	.st11{fill:#066687;}
	.st12{fill:none;}
	.st13{fill:#C5D9FF;}
	.st14{fill:#243762;}
	.st15{opacity:0.29;fill:#243762;enable-background:new    ;}
	.st16{fill:#F7A9B4;}
	.st17{fill:#096889;}
</style>
<rect id="Rectángulo_22_1_" class="st0" width="1920" height="890"/>
<g id="Grupo_215" transform="translate(-438.844 349.016)">
	<g id="Grupo_195" transform="translate(438.844 -349.016)">
		<g id="Grupo_192" transform="translate(6.691)" class="st1">
			<g id="Grupo_191">
				<path id="Trazado_250" class="st2" d="M1373.8,501.8c0.8-13.8,0.4-27.7-1.1-41.5c-8.1-65.3-39.9-125.3-89.3-168.6
					c-17.4-15.3-37.2-29.1-48.6-49.3c-19.1-34.1-17.6-73.3-41.3-107c-24-34-58-59.7-97.3-73.5C980,21.6,817.3,87.1,831.9,227.1
					c0.1,0.5,0.1,1.2,0.2,2.2c1.8,28.1-19.5,52.3-47.6,54.1c-0.8,0-1.6,0.1-2.3,0.1c-107.2,2.5-199.5,85.2-219.3,189.9
					c-12.7,67.3,8.1,141.2,57.4,188.8c36.8,35.6,86.1,55.1,135.5,68.5c99,26.9,203.1,32.6,305.2,22.3
					c95.5-9.6,196.3-37.1,258.1-110.6C1351.8,602.6,1371,553.3,1373.8,501.8z"/>
			</g>
		</g>
		<g id="Grupo_194" transform="translate(25.126 21.814)" class="st3">
			<g id="Grupo_193">
				<path id="Trazado_251" class="st4" d="M1267.2,486.6c0.6-10.8,0.3-21.7-0.9-32.5c-6.3-51.1-31.2-98.1-70-132.1
					c-13.6-12-29.2-22.8-38-38.7c-15-26.7-13.8-57.5-32.4-83.8c-18.8-26.6-45.4-46.8-76.2-57.6c-91-31.5-218.5,19.8-207,129.5
					c0,0.4,0.1,1,0.1,1.7c1.4,22-15.3,41-37.3,42.4c-0.6,0-1.2,0.1-1.8,0.1c-84,2-156.3,66.8-171.8,148.8
					c-9.9,52.8,6.3,110.6,44.9,147.9c28.8,27.9,67.5,43.2,106.1,53.7c78,20.3,159,26.3,239.1,17.4c74.8-7.6,153.8-29.1,202.2-86.6
					C1250,565.6,1265,527,1267.2,486.6z"/>
			</g>
		</g>
		<circle id="Elipse_23" class="st5" cx="1331.2" cy="154.6" r="26.2"/>
		<circle id="Elipse_24" class="st5" cx="755.3" cy="124.1" r="30.4"/>
		<circle id="Elipse_25" class="st5" cx="573.2" cy="708.2" r="39.3"/>
	</g>
	<g id="Grupo_197" transform="translate(482.696 -334.597)">
		<g id="Grupo_196">
			<circle id="Elipse_26" class="st6" cx="839.2" cy="244.8" r="139.2"/>
			<path id="Trazado_252" class="st7" d="M935.9,345c-0.4,0-0.7-0.1-1-0.4c-0.5-0.5-0.5-1.4,0-1.9c25.9-25.8,40.5-60.9,40.4-97.5
				c0.1-36.6-14.4-71.7-40.4-97.5c-25.8-25.9-60.9-40.5-97.5-40.4c-36.6-0.1-71.7,14.4-97.5,40.4c-0.5,0.5-1.4,0.5-1.9,0
				c-0.5-0.5-0.5-1.4,0-1.9c26.3-26.4,62.1-41.3,99.4-41.2c37.3-0.1,73.1,14.7,99.4,41.2c26.4,26.3,41.3,62.1,41.2,99.4
				c0.1,37.3-14.7,73.1-41.2,99.4C936.5,344.9,936.2,345,935.9,345z"/>
			<circle id="Elipse_27" class="st8" cx="839.2" cy="244.8" r="105.9"/>
			<path id="Trazado_253" class="st7" d="M839.2,352C780,351.9,732,304,732,244.8c0.1-59.2,48-107.2,107.2-107.2
				c0.7,0,1.3,0.6,1.3,1.3v0c0,0.7-0.6,1.3-1.3,1.3l0,0c-57.7,0.1-104.5,46.9-104.6,104.6c0.1,57.7,46.9,104.5,104.6,104.6
				c0.7,0,1.3,0.6,1.3,1.3v0C840.6,351.4,840,352,839.2,352C839.2,352,839.2,352,839.2,352z"/>
			<path id="Trazado_254" class="st9" d="M866.7,265h-28.8c-5.9,0-10.7-4.8-10.7-10.7v-40c0-5.1,4.2-9.3,9.3-9.3
				c5.1,0,9.3,4.2,9.3,9.3v32.1h20.9c5.1,0,9.3,4.2,9.3,9.3C876,260.8,871.8,265,866.7,265z"/>
		</g>
	</g>
	<g id="Grupo_202" transform="translate(462.038 -322.347)">
		<path id="Trazado_255" class="st9" d="M643.8,280.9l149.9,149.9c29.3,29.3,76.9,29.3,106.2,0c0,0,0,0,0,0l17.9-17.9
			c6.8-6.8,6.8-17.7,0-24.5l-61.2-61.2c-6.8-6.8-17.7-6.8-24.5,0c0,0,0,0,0,0l-30.6,30.6c-2.4,2.4-6.3,2.4-8.7,0l-74.2-74.2
			c-2.4-2.4-2.4-6.2,0-8.6l30.2-30.2c6.8-6.8,6.8-17.7,0-24.5L686,157.5c-6.7-6.7-17.5-6.8-24.3-0.2l-17,16.4
			c-29.8,28.8-30.7,76.4-1.8,106.2C643.2,280.2,643.5,280.5,643.8,280.9z"/>
		<g id="Grupo_198" transform="translate(4.37 0)">
			<path id="Trazado_256" class="st10" d="M644.1,176.7l84.3,84.3l2.9-2.9l13.3-13.3c6.8-6.8,6.8-17.7,0-24.5l-62.8-62.8
				c-6.7-6.7-17.5-6.8-24.3-0.2l-17,16.4L644.1,176.7z"/>
			<path id="Trazado_257" class="st11" d="M728.4,262.9l-85.1-85.1l-4.9-3.9l18.1-17.5c7.3-7,18.9-6.9,26.2,0.2l62.8,62.8
				c7.3,7.3,7.3,19.1,0,26.4L728.4,262.9z M642.4,173.6l2.7,2.2l83.3,83.3l15.2-15.2c3-3,4.7-7.1,4.7-11.3c0-4.2-1.7-8.3-4.7-11.3
				l-62.8-62.8c-6.2-6.1-16.1-6.2-22.4-0.2L642.4,173.6z"/>
		</g>
		<g id="Grupo_199" transform="translate(40.166 35.194)">
			<path id="Trazado_258" class="st10" d="M779.7,310.1l84.3,84.3l2.9-2.9l13.3-13.3c6.8-6.8,6.8-17.7,0-24.5l-62.8-62.8
				c-6.7-6.7-17.5-6.8-24.3-0.2l-17,16.4L779.7,310.1z"/>
			<path id="Trazado_259" class="st11" d="M864,396.2l-85.1-85.1l-4.9-3.9l18.1-17.5c7.3-7,18.9-6.9,26.2,0.2l62.8,62.8
				c3.5,3.5,5.5,8.2,5.5,13.2c0,5-2,9.7-5.5,13.2L864,396.2z M778,306.9l2.7,2.2l83.3,83.3l15.2-15.2c3-3,4.7-7.1,4.7-11.3
				c0-4.2-1.7-8.3-4.7-11.3l-62.8-62.8c-6.2-6.1-16.1-6.2-22.4-0.2L778,306.9z"/>
		</g>
		<g id="Grupo_200" transform="translate(6.645 2.998)">
			<line id="Línea_21" class="st12" x1="648.3" y1="163.8" x2="699.6" y2="215.2"/>
			<path id="Trazado_260" class="st11" d="M699.6,216.5c-0.4,0-0.7-0.1-1-0.4l-51.3-51.3c-0.5-0.5-0.5-1.4,0-1.9c0,0,0,0,0,0
				c0.5-0.5,1.4-0.5,1.9,0l51.3,51.3c0.5,0.5,0.5,1.4,0,1.9C700.3,216.3,700,216.5,699.6,216.5z"/>
		</g>
		<g id="Grupo_201" transform="translate(49.294 45.648)">
			<line id="Línea_22" class="st12" x1="809.8" y1="325.4" x2="861.2" y2="376.7"/>
			<path id="Trazado_261" class="st11" d="M861.2,378c-0.4,0-0.7-0.1-1-0.4l-51.3-51.3c-0.5-0.5-0.5-1.4,0-1.9c0,0,0,0,0,0
				c0.5-0.5,1.4-0.5,1.9,0l51.3,51.3c0.5,0.5,0.5,1.4,0,1.9c0,0,0,0,0,0C861.9,377.9,861.5,378,861.2,378z"/>
		</g>
	</g>
	<g id="Grupo_205" transform="translate(521.076 -333.129)">
		<path id="Trazado_262" class="st9" d="M1076.7,696.9l-196.6-29.1c-22.2-3.3-37.6-24-34.3-46.2L916.4,145
			c3.3-22.2,24-37.6,46.2-34.3l196.6,29.1c22.2,3.3,37.6,24,34.3,46.2l-70.5,476.6C1119.6,684.8,1098.9,700.2,1076.7,696.9z"/>
		
			<rect id="Rectángulo_136" x="793" y="275" transform="matrix(0.1463 -0.9892 0.9892 0.1463 477.1042 1349.4813)" class="st10" width="455" height="246.7"/>
		
			<rect id="Rectángulo_137" x="1034.2" y="66.8" transform="matrix(0.1463 -0.9892 0.9892 0.1463 709.2909 1202.2437)" class="st4" width="34.1" height="246.7"/>
		<path id="Trazado_263" class="st10" d="M983,667.2c-0.8,0-1.6-0.1-2.3-0.2c-4.2-0.6-7.9-2.9-10.5-6.3c-2.5-3.4-3.6-7.6-3-11.8
			c0.6-4.2,2.9-7.9,6.3-10.5c3.4-2.5,7.6-3.6,11.8-3c4.2,0.6,7.9,2.9,10.5,6.3c2.5,3.4,3.6,7.6,3,11.8
			C997.6,661.4,990.9,667.2,983,667.2z M983,638c-2.8,0-5.6,0.9-7.9,2.6c-2.8,2.1-4.7,5.2-5.2,8.7c-0.5,3.5,0.4,7,2.5,9.8
			c2.1,2.8,5.2,4.7,8.7,5.2c7.2,1.1,14-3.9,15.1-11.2c0.5-3.5-0.4-7-2.5-9.8c-2.1-2.8-5.2-4.7-8.7-5.2
			C984.3,638.1,983.6,638,983,638L983,638z"/>
		<path id="Trazado_264" class="st10" d="M1018.3,150.9c-0.3,0-0.5,0-0.8-0.1c-1.3-0.2-2.5-0.9-3.4-2c-0.8-1.1-1.2-2.5-1-3.8
			c0.2-1.3,0.9-2.5,2-3.4c1.1-0.8,2.5-1.2,3.8-1c1.3,0.2,2.5,0.9,3.4,2c0.8,1.1,1.2,2.5,1,3.8l0,0
			C1023,149.1,1020.8,150.9,1018.3,150.9z M1018.3,143.3c-0.5,0-1,0.2-1.5,0.5c-0.5,0.4-0.9,1-1,1.6c-0.1,0.6,0.1,1.3,0.5,1.8
			c0.4,0.5,1,0.9,1.6,1c0.6,0.1,1.3-0.1,1.8-0.5c0.5-0.4,0.9-1,1-1.6l0,0c0.1-0.6-0.1-1.3-0.5-1.8c-0.4-0.5-1-0.9-1.6-1
			C1018.5,143.3,1018.4,143.3,1018.3,143.3L1018.3,143.3z"/>
		<path id="Trazado_265" class="st10" d="M1097.5,162.6c-0.3,0-0.5,0-0.8-0.1l-62.2-9.2c-1.3-0.2-2.5-0.9-3.4-2
			c-0.8-1.1-1.2-2.5-1-3.8c0.2-1.3,0.9-2.5,2-3.4c1.1-0.8,2.5-1.2,3.8-1l62.2,9.2c1.3,0.2,2.5,0.9,3.4,2c0.8,1.1,1.2,2.5,1,3.8
			c-0.2,1.3-0.9,2.5-2,3.4C1099.7,162.3,1098.6,162.6,1097.5,162.6z M1035.3,145.9c-1.2,0-2.3,0.9-2.4,2.1c-0.1,0.6,0.1,1.3,0.5,1.8
			c0.4,0.5,1,0.9,1.6,1l62.2,9.2c1.3,0.2,2.6-0.7,2.8-2.1c0,0,0,0,0,0c0.1-0.6-0.1-1.3-0.5-1.8c-0.4-0.5-1-0.9-1.6-1l-62.2-9.2
			C1035.5,145.9,1035.4,145.9,1035.3,145.9z"/>
		<path id="Trazado_266" class="st13" d="M1110.2,503.7L940,478.5c-2.8-0.4-5.3,1.5-5.7,4.3l-6.5,44.2c-0.4,2.8,1.5,5.3,4.3,5.7
			l145.6,21.5l15,20.7l2.7-18.1l7,1c2.8,0.4,5.3-1.5,5.7-4.3l6.5-44.2C1114.9,506.7,1113,504.1,1110.2,503.7
			C1110.2,503.7,1110.2,503.7,1110.2,503.7z"/>
		<path id="Trazado_267" class="st11" d="M1077.5,555.6c-0.1,0-0.1,0-0.2,0L931.7,534c-1.7-0.2-3.2-1.1-4.2-2.5
			c-1-1.4-1.4-3.1-1.2-4.8l6.5-44.2c0.5-3.5,3.7-5.9,7.2-5.4c0,0,0,0,0,0l39.3,5.8c0.7,0.1,1.2,0.8,1.1,1.5c0,0,0,0,0,0
			c-0.1,0.7-0.8,1.2-1.5,1.1l-39.3-5.8c-2-0.3-3.9,1.1-4.3,3.2l-6.5,44.2c-0.1,1,0.1,2,0.7,2.8c0.6,0.8,1.5,1.3,2.5,1.5l145.6,21.5
			c0.7,0.1,1.2,0.8,1.1,1.5c0,0,0,0,0,0C1078.7,555.1,1078.1,555.6,1077.5,555.6z"/>
		<path id="Trazado_268" class="st13" d="M1137.2,320.7L967,295.5c-2.8-0.4-5.3,1.5-5.7,4.3l-6.5,44.2c-0.4,2.8,1.5,5.3,4.3,5.7
			l145.6,21.5l15,20.7l2.7-18.1l7,1c2.8,0.4,5.3-1.5,5.7-4.3l6.5-44.2C1141.9,323.7,1140,321.1,1137.2,320.7
			C1137.3,320.7,1137.2,320.7,1137.2,320.7z"/>
		<path id="Trazado_269" class="st11" d="M1120.4,395.3l-16.6-22.9l-145-21.4c-3.5-0.5-5.9-3.8-5.4-7.3c0.1-0.7,0.8-1.2,1.5-1.1
			c0.7,0.1,1.2,0.8,1.1,1.5c0,0,0,0,0,0c-0.1,1,0.1,2,0.7,2.8c0.6,0.8,1.5,1.3,2.5,1.5l146.1,21.6l13.4,18.5l2.4-16.2l8.3,1.2
			c1,0.1,2-0.1,2.8-0.7c0.8-0.6,1.3-1.5,1.5-2.5l4.3-29.4c0.1-0.7,0.8-1.2,1.5-1.1h0c0.7,0.1,1.2,0.8,1.1,1.5c0,0,0,0,0,0l-4.3,29.4
			c-0.2,1.7-1.2,3.2-2.5,4.2c-1.4,1-3.1,1.4-4.8,1.2l-5.7-0.8L1120.4,395.3z"/>
		<path id="Trazado_270" class="st2" d="M921.8,377.6l170.2,25.2c2.8,0.4,4.7,3,4.3,5.7l-6.5,44.2c-0.4,2.8-3,4.7-5.7,4.3
			l-145.6-21.5l-20.3,15.5l2.7-18.1l-7-1c-2.8-0.4-4.7-3-4.3-5.7l6.5-44.2C916.4,379.1,919,377.2,921.8,377.6z"/>
		<path id="Trazado_271" class="st11" d="M1084.7,458.4c-0.3,0-0.6,0-1-0.1l-90.9-13.4c-0.7-0.1-1.2-0.8-1.1-1.5c0,0,0,0,0,0
			c0.1-0.7,0.8-1.2,1.5-1.1c0,0,0,0,0,0l90.9,13.4c1,0.1,2-0.1,2.8-0.7c0.8-0.6,1.3-1.5,1.5-2.5l6.5-44.2c0.3-2-1.1-3.9-3.2-4.3
			c-0.7-0.1-1.2-0.8-1.1-1.5c0,0,0,0,0,0c0.1-0.7,0.8-1.2,1.5-1.1c3.5,0.5,5.9,3.8,5.4,7.3l-6.5,44.2c-0.2,1.7-1.2,3.2-2.5,4.2
			C1087.4,457.9,1086.1,458.4,1084.7,458.4z"/>
		
			<rect id="Rectángulo_138" x="969.3" y="479.3" transform="matrix(0.1463 -0.9892 0.9892 0.1463 249.175 1494.0123)" class="st8" width="41.9" height="246.7"/>
		<path id="Trazado_272" class="st13" d="M907.3,590c-1.2,8.1-8.7,13.7-16.9,12.5c-8.1-1.2-13.7-8.7-12.5-16.9
			c1.2-8.1,8.7-13.7,16.9-12.5C902.9,574.3,908.5,581.9,907.3,590z"/>
		<path id="Trazado_273" class="st4" d="M1087.3,630.2c-0.7,0-1.3-0.1-1.9-0.1l-158.1-23.4c-3.5-0.5-6.6-2.4-8.7-5.2
			c-2.1-2.8-3-6.4-2.5-9.8c1.1-7.2,7.8-12.2,15-11.2l158.1,23.4c7.2,1.1,12.2,7.8,11.2,15C1099.4,625.4,1093.8,630.2,1087.3,630.2z
			 M1085.7,627.4c5.8,0.8,11.1-3.1,12-8.9c0.4-2.8-0.3-5.6-2-7.8c-1.7-2.3-4.2-3.8-6.9-4.2l-158.2-23.4c-5.8-0.8-11.1,3.1-12,8.9
			c-0.4,2.8,0.3,5.6,2,7.9c1.7,2.3,4.2,3.8,6.9,4.2L1085.7,627.4z"/>
		<path id="Trazado_274" class="st8" d="M946.9,179.5c-0.3,0-0.5,0-0.8-0.1c-2.8-0.4-4.8-3.1-4.4-5.9c0.2-1.4,0.9-2.6,2-3.4
			c1.1-0.8,2.5-1.2,3.9-1c2.8,0.4,4.8,3.1,4.4,5.9l0,0C951.6,177.6,949.5,179.5,946.9,179.5z M946.9,171.7c-0.5,0-1.1,0.2-1.5,0.5
			c-0.5,0.4-0.9,1-1,1.7c-0.1,0.7,0.1,1.3,0.5,1.9c0.4,0.5,1,0.9,1.7,1c1.4,0.2,2.7-0.8,2.9-2.1l0,0c0.1-0.7-0.1-1.4-0.5-1.9
			c-0.4-0.5-1-0.9-1.7-1C947.1,171.7,947,171.7,946.9,171.7L946.9,171.7z"/>
		<path id="Trazado_275" class="st8" d="M961.3,181.6c-0.3,0-0.5,0-0.8-0.1c-2.8-0.4-4.8-3.1-4.4-5.9c0.4-2.8,3.1-4.8,5.9-4.4
			c1.4,0.2,2.6,0.9,3.4,2c0.8,1.1,1.2,2.5,1,3.9c-0.2,1.4-0.9,2.6-2,3.4C963.5,181.3,962.4,181.6,961.3,181.6z M961.3,173.9
			c-1.3,0-2.3,0.9-2.5,2.2c-0.1,0.7,0.1,1.4,0.5,1.9c0.4,0.5,1,0.9,1.7,1c0.7,0.1,1.4-0.1,1.9-0.5c0.5-0.4,0.9-1,1-1.7l0,0
			c0.1-0.7-0.1-1.4-0.5-1.9c-0.4-0.5-1-0.9-1.7-1C961.6,173.9,961.4,173.9,961.3,173.9L961.3,173.9z"/>
		<path id="Trazado_276" class="st8" d="M975.4,183.7c-0.3,0-0.5,0-0.8-0.1c-2.8-0.4-4.8-3.1-4.4-5.9c0.4-2.8,3.1-4.8,5.9-4.4
			c2.8,0.4,4.8,3.1,4.4,5.9C980.2,181.8,978,183.7,975.4,183.7z M975.4,176c-0.5,0-1.1,0.2-1.5,0.5c-0.5,0.4-0.9,1-1,1.7
			c-0.1,0.7,0.1,1.3,0.5,1.9c0.4,0.5,1,0.9,1.7,1c1.4,0.2,2.7-0.8,2.9-2.1c0.2-1.4-0.8-2.7-2.1-2.9C975.6,176,975.5,176,975.4,176
			L975.4,176z"/>
		<path id="Trazado_277" class="st11" d="M1174.1,226.9h-0.2L948,193.5c-0.7-0.1-1.2-0.8-1.1-1.5c0,0,0,0,0,0
			c0.1-0.7,0.8-1.2,1.5-1.1c0,0,0,0,0,0l225.9,33.4c0.7,0.1,1.2,0.8,1.1,1.5c0,0,0,0,0,0C1175.3,226.4,1174.7,226.9,1174.1,226.9z"
			/>
		<path id="Trazado_278" class="st8" d="M1079.9,513.9c-0.1,0-0.1,0-0.2,0L959.2,496c-0.7-0.1-1.2-0.8-1.1-1.5c0,0,0,0,0,0
			c0.1-0.7,0.8-1.2,1.5-1.1c0,0,0,0,0,0l120.5,17.8c0.7,0.1,1.2,0.8,1.1,1.5C1081.1,513.4,1080.5,513.9,1079.9,513.9z"/>
		<path id="Trazado_279" class="st8" d="M1008.5,518c-0.1,0-0.1,0-0.2,0l-51.3-7.6c-0.7-0.1-1.2-0.8-1.1-1.5c0,0,0,0,0,0
			c0.1-0.7,0.8-1.2,1.5-1.1c0,0,0,0,0,0l51.3,7.6c0.7,0.1,1.2,0.8,1.1,1.5c0,0,0,0,0,0C1009.8,517.5,1009.2,518,1008.5,518z"/>
		<path id="Trazado_280" class="st8" d="M991.2,529.2H991l-36-5.3c-0.7-0.1-1.2-0.8-1.1-1.5c0,0,0,0,0,0c0.1-0.7,0.8-1.2,1.5-1.1
			c0,0,0,0,0,0l36,5.3c0.7,0.1,1.2,0.8,1.1,1.5c0,0,0,0,0,0C992.4,528.7,991.9,529.2,991.2,529.2z"/>
		<path id="Trazado_281" class="st8" d="M1077.8,528.2c-0.1,0-0.1,0-0.2,0l-53-7.8c-0.7-0.1-1.2-0.8-1.1-1.5c0,0,0,0,0,0
			c0.1-0.7,0.8-1.2,1.5-1.1c0,0,0,0,0,0l53,7.8c0.7,0.1,1.2,0.8,1.1,1.5c0,0,0,0,0,0C1079,527.8,1078.4,528.2,1077.8,528.2z"/>
		<g id="Grupo_203" transform="translate(20.001 59.12)">
			<path id="Trazado_282" class="st8" d="M1045.2,354.7c-0.1,0-0.1,0-0.2,0l-120.5-17.8c-0.7-0.1-1.2-0.8-1.1-1.5
				c0.1-0.7,0.8-1.2,1.5-1.1c0,0,0,0,0,0l120.5,17.8c0.7,0.1,1.2,0.8,1.1,1.5c0,0,0,0,0,0C1046.4,354.2,1045.8,354.7,1045.2,354.7z"
				/>
			<path id="Trazado_283" class="st8" d="M973.8,358.9c-0.1,0-0.1,0-0.2,0l-51.3-7.6c-0.7-0.1-1.2-0.8-1.1-1.5c0,0,0,0,0,0
				c0.1-0.7,0.8-1.2,1.5-1.1l51.3,7.6c0.7,0.1,1.2,0.8,1.1,1.5C975,358.4,974.5,358.8,973.8,358.9z"/>
			<path id="Trazado_284" class="st8" d="M1027.1,380.5c-0.1,0-0.1,0-0.2,0l-104-16.1c-0.7-0.1-1.2-0.8-1.1-1.5
				c0.1-0.7,0.8-1.2,1.5-1.1l104,16.1c0.7,0.1,1.2,0.8,1.1,1.5c0,0,0,0,0,0C1028.3,380,1027.8,380.5,1027.1,380.5z"/>
			<path id="Trazado_285" class="st8" d="M1043,369.1c-0.1,0-0.1,0-0.2,0l-53-7.8c-0.7-0.1-1.2-0.8-1.1-1.5c0,0,0,0,0,0
				c0.1-0.7,0.8-1.2,1.5-1.1c0,0,0,0,0,0l53,7.8c0.7,0.1,1.2,0.8,1.1,1.5c0,0,0,0,0,0C1044.2,368.6,1043.7,369.1,1043,369.1z"/>
		</g>
		<path id="Trazado_286" class="st2" d="M943.6,211.6l170.2,25.2c2.8,0.4,4.7,3,4.3,5.7l-6.5,44.2c-0.4,2.8-3,4.7-5.7,4.3
			l-145.6-21.5L940,284.8l2.7-18.1l-7-1c-2.8-0.4-4.7-3-4.3-5.7l6.5-44.2C938.3,213.1,940.9,211.2,943.6,211.6z"/>
		<path id="Trazado_287" class="st11" d="M1111.6,288c-0.1,0-0.1,0-0.2,0c-0.7-0.1-1.2-0.8-1.1-1.5c0,0,0,0,0,0l6.5-44.2
			c0.1-1-0.1-2-0.7-2.8c-0.6-0.8-1.5-1.3-2.5-1.5L1008,222.4c-0.7-0.1-1.2-0.8-1.1-1.5c0,0,0,0,0,0c0.1-0.7,0.8-1.2,1.5-1.1
			l105.7,15.6c1.7,0.2,3.2,1.2,4.2,2.5c1,1.4,1.4,3.1,1.2,4.8l-6.5,44.2C1112.8,287.5,1112.3,288,1111.6,288z"/>
		<g id="Grupo_204" transform="translate(24.568 24.444)">
			<path id="Trazado_288" class="st8" d="M1062.5,223.4c-0.1,0-0.1,0-0.2,0l-120.5-17.8c-0.7-0.1-1.2-0.8-1.1-1.5
				c0.1-0.7,0.8-1.2,1.5-1.1h0l120.5,17.8c0.7,0.1,1.2,0.8,1.1,1.5c0,0,0,0,0,0C1063.7,222.9,1063.1,223.4,1062.5,223.4z"/>
			<path id="Trazado_289" class="st8" d="M991.1,227.5c-0.1,0-0.1,0-0.2,0l-51.3-7.6c-0.7-0.1-1.2-0.8-1.1-1.5
				c0.1-0.7,0.8-1.2,1.5-1.1h0l51.3,7.6c0.7,0.1,1.2,0.8,1.1,1.5c0,0,0,0,0,0C992.3,227,991.8,227.5,991.1,227.5z"/>
			<path id="Trazado_290" class="st8" d="M1044.4,249.1c-0.1,0-0.1,0-0.2,0l-104-16.1c-0.7-0.1-1.2-0.8-1.1-1.5
				c0.1-0.7,0.8-1.2,1.5-1.1l104,16.1c0.7,0.1,1.2,0.8,1.1,1.5C1045.6,248.7,1045.1,249.1,1044.4,249.1z"/>
			<path id="Trazado_291" class="st8" d="M1060.3,237.7h-0.2l-53-7.8c-0.7-0.1-1.2-0.8-1.1-1.5c0,0,0,0,0,0c0.1-0.7,0.8-1.2,1.5-1.1
				c0,0,0,0,0,0l53,7.8c0.7,0.1,1.2,0.8,1.1,1.5c0,0,0,0,0,0C1061.5,237.3,1061,237.7,1060.3,237.7z"/>
		</g>
		<path id="Trazado_292" class="st8" d="M1107.1,332.6h-0.2l-120.5-17.8c-0.7-0.1-1.2-0.8-1.1-1.5c0,0,0,0,0,0
			c0.1-0.7,0.8-1.2,1.5-1.1c0,0,0,0,0,0l120.5,17.8c0.7,0.1,1.2,0.8,1.1,1.5c0,0,0,0,0,0C1108.3,332.1,1107.7,332.6,1107.1,332.6z"
			/>
		<path id="Trazado_293" class="st8" d="M1035.7,336.7h-0.2l-51.3-7.6c-0.7-0.1-1.2-0.8-1.1-1.5c0.1-0.7,0.8-1.2,1.5-1.1h0l51.3,7.6
			c0.7,0.1,1.2,0.8,1.1,1.5c0,0,0,0,0,0C1036.9,336.2,1036.4,336.7,1035.7,336.7z"/>
		<path id="Trazado_294" class="st8" d="M1018.4,347.9c-0.1,0-0.1,0-0.2,0l-36-5.3c-0.7-0.1-1.2-0.8-1.1-1.5c0,0,0,0,0,0
			c0.1-0.7,0.8-1.2,1.5-1.1c0,0,0,0,0,0l36,5.3c0.7,0.1,1.2,0.8,1.1,1.5c0,0,0,0,0,0C1019.6,347.4,1019.1,347.9,1018.4,347.9z"/>
		<path id="Trazado_295" class="st8" d="M1104.9,346.9c-0.1,0-0.1,0-0.2,0l-53-7.8c-0.7-0.1-1.2-0.8-1.1-1.5
			c0.1-0.7,0.8-1.2,1.5-1.1c0,0,0,0,0,0l53,7.8c0.7,0.1,1.2,0.8,1.1,1.5c0,0,0,0,0,0C1106.1,346.5,1105.6,346.9,1104.9,346.9z"/>
	</g>
	<g id="Grupo_214" transform="translate(460.905 -277.594)">
		<g id="Grupo_206" transform="translate(0 19.333)">
			<path id="Trazado_296" class="st4" d="M922.1,581.1l-273,30.8c-5.2,0.6-10-3.2-10.6-8.4l-19.7-174.9c0-0.3,0.2-0.5,0.4-0.6
				l291-32.8c0.3,0,0.5,0.1,0.5,0.4c0,0,0,0,0,0.1l19.7,175C931.1,575.8,927.4,580.5,922.1,581.1
				C922.2,581.1,922.2,581.1,922.1,581.1z"/>
			<path id="Trazado_297" class="st14" d="M648,613.3c-5.5,0-10.2-4.2-10.8-9.7l-19.7-174.9c-0.1-1,0.6-1.9,1.6-2l291-32.8
				c1-0.1,1.9,0.6,2,1.6c0,0,0,0,0,0l19.7,175c0.3,2.9-0.5,5.7-2.3,8c-1.8,2.3-4.4,3.7-7.2,4l-273,30.8
				C648.8,613.3,648.4,613.3,648,613.3z M620.2,429.2l19.6,174.1c0.5,4.5,4.6,7.8,9.1,7.3c0,0,0,0,0,0l273-30.8l0.1,1.3l-0.1-1.3
				c2.2-0.2,4.1-1.3,5.5-3c1.4-1.7,2-3.9,1.7-6l-19.6-174.2L620.2,429.2z"/>
		</g>
		<path id="Trazado_298" class="st15" d="M909.3,600.5l-246.9,30.8c-5.3,0.6,76.5-104.3,75.9-109.5l-119.5-73.8
			c0-0.3,0.2-0.5,0.4-0.6l291-32.8c0.3,0,0.5,0.1,0.5,0.4c0,0,0,0,0,0.1l-99.5,98.5C811.8,518.7,914.6,599.9,909.3,600.5z"/>
		<g id="Grupo_207" transform="translate(0.176 0)">
			<path id="Trazado_299" class="st16" d="M619.1,447.3l120.3-119c7.2-7.1,18.3-8.4,26.9-3.1l143,88.8c0.1,0.1,0.2,0.3,0.1,0.4
				c0,0.1-0.1,0.1-0.2,0.1l-290.6,32.7"/>
			<path id="Trazado_300" class="st14" d="M618.7,448.7l-0.2-2l-0.4-0.4l0.3-0.3v0h0l120-118.7c7.6-7.6,19.4-8.9,28.5-3.3L910,413
				c0.6,0.4,0.9,1.1,0.7,1.7c-0.1,0.7-0.7,1.2-1.4,1.3L618.7,448.7z M754.8,323.3c-5.4,0-10.6,2.1-14.4,6L622.8,445.6l283.4-31.9
				l-140.5-87.3C762.4,324.4,758.6,323.3,754.8,323.3z"/>
		</g>
		<path id="Trazado_301" class="st17" d="M619.3,447.3l120.3-119c7.2-7.1,18.3-8.4,26.9-3.1l143,88.8c0.1,0.1,0.2,0.3,0.1,0.4
			c0,0.1-0.1,0.1-0.2,0.1l-290.6,32.7"/>
		<g id="Grupo_208" transform="translate(8.8 35.511)">
			<path id="Trazado_302" class="st16" d="M744.1,467.9l-90.4,125.8l246.9-27.8L784.4,463.3c-11.3-10-28.6-8.9-38.6,2.4
				C745.2,466.4,744.6,467.1,744.1,467.9z"/>
			<path id="Trazado_303" class="st14" d="M650.8,595.4L743,467.1l1.1,0.8l-1.1-0.8c4.7-6.6,12-10.8,20.1-11.7
				c8-0.9,16.1,1.6,22.2,7l118.4,104.5L650.8,595.4z M766.3,457.8c-1,0-1.9,0.1-2.9,0.2c-7.3,0.8-13.9,4.7-18.2,10.7l-88.7,123.4
				l240.9-27.1l-114-100.6C778.7,460.1,772.6,457.8,766.3,457.8L766.3,457.8z"/>
		</g>
		<g id="Grupo_209" transform="translate(3.439 3.666)">
			<path id="Trazado_304" class="st8" d="M630.5,357.5L820.7,336c12.4-1.4,23.6,6.2,24.8,17l12.2,108.5l-52.9,48.6l-69.9,7.9
				l-69-43.2L654,369.8L630.5,357.5z"/>
			<path id="Trazado_305" class="st14" d="M734.6,519.4l-70-43.8l-11.8-105l-18.1-15l185.8-20.9c6.1-0.8,12.4,0.7,17.5,4.2
				c4.8,3.2,8,8.3,8.7,14.1l12.3,109.2l-53.7,49.4L734.6,519.4z M667.2,474.1l68.1,42.6l69-7.8l52.1-47.9l-12.1-107.8
				c-0.6-5-3.4-9.4-7.6-12.2c-4.6-3.1-10.2-4.4-15.7-3.7L635,358.3l20.3,10.6L667.2,474.1z"/>
		</g>
		<path id="Trazado_306" class="st15" d="M752.9,492.5l-90.4,136.7l246.9-27.8L793.2,488c-11.3-10-28.6-8.9-38.6,2.4
			C754,491.1,753.4,491.8,752.9,492.5z"/>
		<g id="Grupo_210" transform="translate(8.8 35.511)">
			<path id="Trazado_307" class="st2" d="M744.1,467.9l-90.4,125.8l246.9-27.8L784.4,463.3c-11.3-10-28.6-8.9-38.6,2.4
				C745.2,466.4,744.6,467.1,744.1,467.9z"/>
			<path id="Trazado_308" class="st14" d="M650.8,595.4L743,467.1l1.1,0.8l-1.1-0.8c4.7-6.6,12-10.8,20.1-11.7
				c8-0.9,16.1,1.6,22.2,7l118.4,104.5L650.8,595.4z M766.3,457.8c-1,0-1.9,0.1-2.9,0.2c-7.3,0.8-13.9,4.7-18.2,10.7l-88.7,123.4
				l240.9-27.1l-114-100.6C778.7,460.1,772.6,457.8,766.3,457.8L766.3,457.8z"/>
		</g>
		<path id="Trazado_309" class="st4" d="M761.7,531.2l-66.4,92.4l181.3-20.4l-85.3-75.3c-8.3-7.3-21-6.5-28.3,1.8
			C762.5,530.2,762.1,530.7,761.7,531.2z"/>
		<g id="Grupo_211" transform="translate(0.247 26.273)">
			<line id="Línea_23" class="st12" x1="619.1" y1="421.3" x2="738.1" y2="495.4"/>
			
				<rect id="Rectángulo_139" x="677.3" y="388.3" transform="matrix(0.5289 -0.8487 0.8487 0.5289 -69.2945 791.9213)" class="st14" width="2.7" height="140.2"/>
		</g>
		<g id="Grupo_212" transform="translate(40.277 19.452)">
			<line id="Línea_24" class="st12" x1="870.5" y1="395.3" x2="771" y2="494.1"/>
			
				<rect id="Rectángulo_140" x="750.6" y="443.3" transform="matrix(0.7096 -0.7046 0.7046 0.7096 -74.9606 707.479)" class="st14" width="140.2" height="2.7"/>
		</g>
		<g id="Grupo_213" transform="translate(1.11 8.018)">
			<path id="Trazado_310" class="st10" d="M661.7,413.9l-33.2,3.7l-5.3-47.4c-1-8.8,5.3-16.6,14.1-17.6l1.5-0.2
				c8.7-1,16.6,5.3,17.6,14.1c0,0,0,0,0,0L661.7,413.9z"/>
			<path id="Trazado_311" class="st14" d="M627.3,419.1l-5.5-48.7c-0.5-4.6,0.8-9.1,3.7-12.7c2.8-3.6,7-5.9,11.6-6.4l1.5-0.2
				c4.6-0.5,9.1,0.8,12.7,3.7c3.6,2.8,5.9,7,6.4,11.6l5.5,48.7L627.3,419.1z M640.5,353.7c-0.6,0-1.1,0-1.7,0.1l-1.5,0.2
				c-3.9,0.4-7.4,2.4-9.8,5.4c-2.4,3-3.5,6.9-3.1,10.7l5.2,46l30.5-3.4l-5.2-46c-0.4-3.9-2.4-7.4-5.4-9.8
				C647,354.8,643.8,353.7,640.5,353.7L640.5,353.7z"/>
		</g>
		<path id="Trazado_312" class="st14" d="M685.3,397.2c-0.7,0-1.2-0.5-1.3-1.2c-0.1-0.7,0.4-1.4,1.2-1.5l137.8-15.5
			c0.7-0.1,1.4,0.4,1.5,1.2c0,0,0,0,0,0c0.1,0.7-0.4,1.4-1.2,1.5l-137.8,15.5L685.3,397.2z"/>
		<path id="Trazado_313" class="st14" d="M690.6,444.1c-0.7,0-1.2-0.5-1.3-1.2c-0.1-0.7,0.4-1.4,1.2-1.5l137.8-15.5
			c0.7-0.1,1.4,0.4,1.5,1.2c0,0,0,0,0,0c0.1,0.7-0.4,1.4-1.2,1.5l-137.8,15.5L690.6,444.1z"/>
		<path id="Trazado_314" class="st14" d="M687.9,420.4c-0.7,0-1.2-0.5-1.3-1.2c-0.1-0.7,0.4-1.4,1.2-1.5l59.5-6.7
			c0.7-0.1,1.4,0.4,1.5,1.2c0.1,0.7-0.4,1.4-1.2,1.5l-59.5,6.7L687.9,420.4z"/>
		<path id="Trazado_315" class="st14" d="M763,411.9c-0.7,0-1.2-0.5-1.3-1.2c-0.1-0.7,0.4-1.4,1.2-1.5c0,0,0,0,0,0l62.7-7.1
			c0.7-0.1,1.4,0.4,1.5,1.2c0.1,0.7-0.4,1.4-1.2,1.5c0,0,0,0,0,0l-62.7,7.1L763,411.9z"/>
		<path id="Trazado_316" class="st14" d="M693.6,470.6c-0.7,0-1.2-0.5-1.3-1.2c-0.1-0.7,0.4-1.4,1.2-1.5c0,0,0,0,0,0l59.5-6.7
			c0.7-0.1,1.4,0.4,1.5,1.2c0.1,0.7-0.4,1.4-1.2,1.5c0,0,0,0,0,0l-59.5,6.7L693.6,470.6z"/>
	</g>
</g>
</svg>
