<svg id="Layer_1" data-name="Layer 1" xmlns="http://www.w3.org/2000/svg" viewBox="0 0 100 100"><defs><style>.cls-1{fill:#259bda;}</style></defs><path id="Icon_awesome-plus-circle" data-name="Icon awesome-plus-circle" class="cls-1" d="M50,0a50,50,0,1,0,50,50h0A50,50,0,0,0,50,0ZM79,55.64a2.42,2.42,0,0,1-2.42,2.42H58.07V76.61A2.43,2.43,0,0,1,55.65,79H44.36a2.42,2.42,0,0,1-2.42-2.42V58.06H23.39A2.42,2.42,0,0,1,21,55.64V44.35a2.43,2.43,0,0,1,2.42-2.42H41.94V23.39A2.42,2.42,0,0,1,44.36,21H55.65a2.43,2.43,0,0,1,2.42,2.42V41.93H76.61A2.43,2.43,0,0,1,79,44.35Z"/></svg>