<?xml version="1.0" encoding="utf-8"?>
<!-- Generator: Adobe Illustrator 24.3.0, SVG Export Plug-In . SVG Version: 6.00 Build 0)  -->
<svg version="1.1" id="Layer_1" xmlns="http://www.w3.org/2000/svg" xmlns:xlink="http://www.w3.org/1999/xlink" x="0px" y="0px"
	 viewBox="0 0 50 50" style="enable-background:new 0 0 50 50;" xml:space="preserve">
<style type="text/css">
	.st0{fill:#259BDA;}
	.st1{fill:#81B844;}
</style>
<g id="Icon_ionic-ios-chatbubbles" transform="translate(-3.375 -3.375)">
	<path id="Trazado_317" class="st0" d="M49.4,36.1c0-0.5,0.1-1,0.4-1.5c0.1-0.1,0.2-0.3,0.3-0.4c2.2-3.2,3.3-7,3.3-10.9
		c0-11.1-9.3-20.1-20.9-20.1c-10.1,0-18.5,6.9-20.5,16c-0.3,1.4-0.4,2.7-0.4,4.1c0,11.3,9.2,20.4,20.5,20.3c0,0,0.1,0,0.1,0
		c1.9-0.1,3.8-0.4,5.7-0.9c1.4-0.4,2.7-0.9,3.1-1c0.4-0.1,0.7-0.2,1.1-0.2c0.4,0,0.8,0.1,1.2,0.2l6.8,2.4c0.1,0.1,0.3,0.1,0.5,0.1
		c0.5,0,1-0.4,1-1c0,0,0,0,0,0c0-0.1,0-0.2-0.1-0.3L49.4,36.1z"/>
	<path id="Trazado_318" class="st1" d="M35.9,44.8c-0.4,0.1-1,0.3-1.6,0.4c-1.3,0.3-2.7,0.5-4.1,0.5C19,45.8,9.8,36.7,9.7,25.5
		c0,0,0-0.1,0-0.1c0-0.9,0.1-1.7,0.2-2.6c0.1-0.5,0.2-1,0.3-1.5c0.1-0.5,0.3-1.1,0.4-1.6l-1,0.9C5.7,23.9,3.4,28.8,3.4,34
		c0,3.5,1,6.9,3,9.9c0.3,0.4,0.4,0.7,0.4,1c0,0.2-1.4,7.5-1.4,7.5c-0.1,0.3,0.1,0.7,0.3,0.9c0.2,0.1,0.4,0.2,0.6,0.2
		c0.1,0,0.2,0,0.3-0.1l6.7-2.7c0.5-0.2,1-0.2,1.4,0c2.3,0.9,4.8,1.4,7.3,1.4c5.6,0,10.8-2.4,14.4-6.6c0,0,0.4-0.5,0.8-1.2
		C36.9,44.5,36.4,44.7,35.9,44.8z"/>
</g>
</svg>
