<?xml version="1.0" encoding="utf-8"?>
<!-- Generator: Adobe Illustrator 24.3.0, SVG Export Plug-In . SVG Version: 6.00 Build 0)  -->
<svg version="1.1" id="Layer_1" xmlns="http://www.w3.org/2000/svg" xmlns:xlink="http://www.w3.org/1999/xlink" x="0px" y="0px"
	 viewBox="0 0 50 50" style="enable-background:new 0 0 50 50;" xml:space="preserve">
<style type="text/css">
	.st0{fill:#259BDA;}
</style>
<g id="Icon_ionic-ios-mail" transform="translate(-3.375 -7.875)">
	<path id="Trazado_319" class="st0" d="M53,18.3L40,31.5c-0.1,0.1-0.1,0.2,0,0.3c0,0,0,0,0,0l9.1,9.6c0.6,0.6,0.6,1.6,0,2.2
		c0,0,0,0,0,0c-0.6,0.6-1.6,0.6-2.2,0l-9-9.6c-0.1-0.1-0.3-0.1-0.3,0l-2.2,2.2c-1.8,1.9-4.3,2.9-6.9,2.9c-2.7,0-5.2-1.1-7-3L19.3,34
		C19.2,34,19,34,18.9,34l-9,9.6c-0.6,0.6-1.6,0.6-2.2,0c-0.6-0.6-0.6-1.6,0-2.2c0,0,0,0,0,0l9.1-9.6c0.1-0.1,0.1-0.2,0-0.3L3.8,18.3
		c-0.1-0.1-0.2-0.1-0.3,0c0,0-0.1,0.1-0.1,0.2v26.4c0,2.1,1.7,3.8,3.8,3.8h42.3c2.1,0,3.8-1.7,3.8-3.8V18.5c0-0.1-0.1-0.2-0.2-0.2
		C53.1,18.2,53,18.3,53,18.3z"/>
	<path id="Trazado_320" class="st0" d="M28.4,36.1c1.8,0,3.5-0.7,4.7-2l18.9-19.2c-0.7-0.5-1.5-0.8-2.4-0.8H7.2
		c-0.9,0-1.7,0.3-2.4,0.8l18.9,19.2C24.9,35.4,26.6,36.1,28.4,36.1z"/>
</g>
</svg>
