<?xml version="1.0" encoding="utf-8"?>
<!-- Generator: Adobe Illustrator 24.3.0, SVG Export Plug-In . SVG Version: 6.00 Build 0)  -->
<svg version="1.1" id="Layer_1" xmlns="http://www.w3.org/2000/svg" xmlns:xlink="http://www.w3.org/1999/xlink" x="0px" y="0px"
	 viewBox="0 0 50 50" style="enable-background:new 0 0 50 50;" xml:space="preserve">
<style type="text/css">
	.st0{fill:#EDEDED;}
	.st1{fill:#55CD6C;}
	.st2{fill:#FEFEFE;}
</style>
<path class="st0" d="M0,50l3.4-12.5C1.2,33.6,0,29.3,0,24.8C0,11.2,11.2,0,24.9,0S50,11.2,50,24.8S38.6,50,24.9,50
	c-4.3,0-8.4-1.4-12.2-3.4L0,50z"/>
<path class="st1" d="M13.4,42.1l0.8,0.4c3.2,2,6.9,3.2,10.8,3.2c11.3,0,20.7-9.4,20.7-20.9S36.3,4.3,24.9,4.3S4.3,13.4,4.3,24.8
	c0,4,1.1,7.8,3.2,11.1L8,36.7L6,44L13.4,42.1z"/>
<path class="st2" d="M18.3,13.3l-1.6-0.1c-0.5,0-1,0.2-1.4,0.5c-0.8,0.7-2.1,2-2.4,3.7c-0.6,2.6,0.3,5.7,2.6,8.8s6.6,8.1,14.1,10.3
	c2.4,0.7,4.3,0.3,5.9-0.7c1.2-0.8,2-2,2.2-3.3l0.3-1.2c0.1-0.3-0.1-0.8-0.4-0.9l-5.4-2.5c-0.3-0.2-0.8-0.1-1,0.3l-2.2,2.8
	c-0.2,0.2-0.4,0.3-0.7,0.2c-1.5-0.5-6.4-2.6-9.1-7.8c-0.1-0.3-0.1-0.5,0.1-0.7l2.1-2.3c0.2-0.3,0.3-0.6,0.2-0.9L19,13.8
	C18.9,13.5,18.6,13.3,18.3,13.3"/>
</svg>
